<?xml version="1.0" standalone="no"?><!DOCTYPE svg PUBLIC "-//W3C//DTD SVG 1.1//EN" "http://www.w3.org/Graphics/SVG/1.1/DTD/svg11.dtd"><svg class="icon" height="512" viewBox="0 0 1024 1024" version="1.1" xmlns="http://www.w3.org/2000/svg"><path d="M292.20202 263.757576h248.242424c15.515152 0 25.858586-10.343434 25.858586-25.858586 0-10.343434-10.343434-25.858586-25.858586-25.858586H292.20202c-10.343434 0-25.858586 10.343434-25.858586 25.858586s10.343434 25.858586 25.858586 25.858586M292.20202 377.535354h341.333334c10.343434 0 25.858586-10.343434 25.858585-25.858586 0-10.343434-10.343434-25.858586-25.858585-25.858586H292.20202c-10.343434 0-25.858586 10.343434-25.858586 25.858586s10.343434 25.858586 25.858586 25.858586M199.111111 98.262626M623.191919 972.282828H199.111111C142.222222 972.282828 100.848485 930.909091 100.848485 879.191919V98.262626C100.848485 41.373737 142.222222 0 199.111111 0h527.515152c51.717172 0 98.262626 41.373737 98.262626 98.262626v362.020202h-51.717172v-362.020202c0-25.858586-20.686869-46.545455-46.545454-46.545454H199.111111c-25.858586 0-46.545455 20.686869-46.545454 46.545454V879.191919c0 25.858586 20.686869 46.545455 46.545454 46.545455h424.080808v46.545454zM902.464646 636.121212c-5.171717-5.171717-10.343434-10.343434-10.343434-15.515151v-20.686869c0-10.343434 5.171717-25.858586 0-36.20202-5.171717-10.343434-20.686869-10.343434-31.030303-10.343435-5.171717 0-15.515152 0-20.686869-5.171717-5.171717 0-5.171717-10.343434-10.343434-15.515151-5.171717-10.343434-10.343434-25.858586-20.686869-25.858586h-5.171717c-10.343434 0-15.515152 5.171717-25.858586 10.343434-5.171717 5.171717-15.515152 10.343434-20.686868 10.343435-5.171717 0-10.343434-5.171717-20.686869-10.343435s-15.515152-10.343434-25.858586-10.343434h-5.171717c-10.343434 5.171717-15.515152 15.515152-20.686869 25.858586-5.171717 5.171717-5.171717 15.515152-10.343434 15.515151-5.171717 5.171717-10.343434 5.171717-20.686869 5.171717s-25.858586 0-31.030303 10.343435c-5.171717 10.343434-5.171717 20.686869 0 36.20202 0 5.171717 5.171717 15.515152 0 20.686869 0 5.171717-5.171717 10.343434-10.343434 15.515151-10.343434 10.343434-20.686869 15.515152-20.686869 31.030303s10.343434 20.686869 20.686869 31.030303c5.171717 5.171717 10.343434 10.343434 10.343434 15.515152v20.686868c0 10.343434-5.171717 25.858586 0 36.202021 5.171717 10.343434 20.686869 10.343434 31.030303 10.343434 5.171717 0 15.515152 0 20.686869 5.171717 5.171717 5.171717 5.171717 10.343434 10.343434 15.515152 5.171717 10.343434 10.343434 25.858586 20.686869 25.858585h5.171717c10.343434 0 15.515152-5.171717 25.858586-10.343434 5.171717-5.171717 15.515152-10.343434 20.686869-10.343434 5.171717 0 10.343434 5.171717 20.686868 10.343434s15.515152 10.343434 25.858586 10.343434h5.171717c10.343434-5.171717 15.515152-15.515152 20.686869-25.858585 5.171717-5.171717 5.171717-15.515152 10.343434-15.515152 5.171717-5.171717 10.343434-5.171717 20.686869-5.171717s25.858586-5.171717 31.030303-10.343434c5.171717-10.343434 5.171717-20.686869 0-36.202021 0-5.171717-5.171717-15.515152 0-20.686868 0-5.171717 5.171717-10.343434 10.343434-15.515152 10.343434-10.343434 20.686869-15.515152 20.686869-31.030303s-10.343434-20.686869-20.686869-31.030303z m-144.80808 93.090909c-31.030303 0-62.060606-25.858586-62.060606-62.060606 0-31.030303 25.858586-62.060606 62.060606-62.060606s62.060606 25.858586 62.060606 62.060606c0 31.030303-31.030303 62.060606-62.060606 62.060606zM814.545455 842.989899h-10.343435c-15.515152 0-25.858586-5.171717-36.20202-10.343434-5.171717 0-5.171717-5.171717-10.343434-5.171718 0 0-5.171717 5.171717-10.343435 5.171718-10.343434 5.171717-20.686869 10.343434-36.20202 10.343434h-10.343434c-10.343434-5.171717-20.686869-10.343434-25.858586-20.686869v191.353536c0 5.171717 0 5.171717 5.171717 10.343434h10.343434l67.232324-62.060606 67.232323 62.060606h10.343434c5.171717 0 5.171717-5.171717 5.171717-10.343434v-191.353536c-5.171717 10.343434-15.515152 15.515152-25.858585 20.686869" /></svg>